<?xml version="1.0" encoding="UTF-8" standalone="no"?>
<!-- Created with Inkscape (http://www.inkscape.org/) -->

<svg
   xmlns:dc="http://purl.org/dc/elements/1.1/"
   xmlns:cc="http://creativecommons.org/ns#"
   xmlns:rdf="http://www.w3.org/1999/02/22-rdf-syntax-ns#"
   xmlns:svg="http://www.w3.org/2000/svg"
   xmlns="http://www.w3.org/2000/svg"
   version="1.1"
   width="715.74799"
   height="265.39371"
   id="svg3321">
  <defs
     id="defs3323" />
  <metadata
     id="metadata3326">
    <rdf:RDF>
      <cc:Work
         rdf:about="">
        <dc:format>image/svg+xml</dc:format>
        <dc:type
           rdf:resource="http://purl.org/dc/dcmitype/StillImage" />
        <dc:title></dc:title>
      </cc:Work>
    </rdf:RDF>
  </metadata>
  <g
     transform="translate(7.4058924,-419.22801)"
     id="layer1">
    <g
       transform="matrix(6.7679763,0,0,6.7679763,-3069.5655,-3049.0012)"
       id="g3382">
      <g
         transform="matrix(0.24625775,0,0,0.247345,457.09546,523.53799)"
         id="g3199">
        <path
           d="m 0,0 0,0 c -10.801,7.353 -16.745,18.413 -16.745,31.144 0,13.824 6.696,25.301 18.866,32.342 9.054,5.155 19.929,7.674 33.236,7.674 0.02,0 4.397,-0.117 4.397,-0.117 3.189,-0.273 4.841,-2.492 4.841,-4.581 l -0.042,-0.453 c -0.344,-2.128 -2.292,-4.011 -5.376,-3.667 l 0,-0.02 -3.835,0.11 c -7.839,0 -15.977,-3.304 -21.793,-8.818 C 7.515,47.842 4.436,39.727 4.436,29.519 4.436,19.104 8.022,10.747 14.82,5.396 20.07,1.21 26.879,-1.016 34.5,-1.016 c 4.237,0 8.131,0.481 11.569,1.418 2.175,0.535 3.929,1.144 5.328,1.624 0,0.016 1.766,0.614 1.766,0.614 3.609,1.339 5.402,-0.508 5.983,-1.379 l 0.25,-0.457 c 0.218,-0.472 0.323,-0.999 0.323,-1.519 0,-1.769 -1.22,-3.604 -3.141,-4.526 l 0.011,-0.028 -0.011,0 -0.02,-0.011 C 53.374,-6.959 46.447,-9.728 35.841,-9.728 22.284,-9.728 9.222,-6.19 0,0"
           id="path3201"
           style="fill:#231f20;fill-opacity:1;fill-rule:nonzero;stroke:none" />
      </g>
      <g
         transform="matrix(0.24625775,0,0,0.247345,480.85536,530.03478)"
         id="g3203">
        <path
           d="M 0,0 0.008,0 0.019,0 0,0 z"
           id="path3205"
           style="fill:#231f20;fill-opacity:1;fill-rule:nonzero;stroke:none" />
      </g>
      <g
         transform="matrix(0.24625775,0,0,0.247345,478.84635,532.09701)"
         id="g3207">
        <path
           d="m 0,0 c -0.994,0.352 -2.736,0.531 -5.36,0.531 l -17.002,0 c 0.725,-1.168 1.945,-2.683 3.699,-4.069 1.921,-1.488 5.02,-3.265 8.657,-3.265 3.38,0 6.112,0.703 7.87,2.019 1.551,1.078 2.358,2.546 2.358,4.264 0,0.235 -0.09,0.391 -0.222,0.52 m 8.166,-8.337 c -3.793,-4.413 -9.877,-6.968 -16.707,-6.968 -7.799,0 -14.628,2.41 -19.754,6.944 -5.827,4.928 -9.195,12.251 -9.195,20.076 0,7.764 3.236,14.879 8.443,18.577 10.162,7.213 27.569,6.498 34.617,4.519 0.713,-0.207 1.309,-0.661 1.726,-1.274 L 8.79,31.183 c 0.619,-1 0.596,-2.261 -0.067,-3.226 C 8.049,26.988 6.879,26.5 5.706,26.723 c -5.266,0.925 -19.692,1.093 -24.084,-4.03 -2.41,-2.808 -3.583,-5.542 -3.583,-8.377 0,-0.949 0.145,-1.948 0.41,-2.952 0.058,-0.246 0.238,-0.48 0.51,-0.668 0.534,-0.242 0.986,-0.371 1.493,-0.371 l 20.807,0 1.286,0.028 c 0.039,0 2.935,-0.036 2.935,-0.036 1.918,-0.004 3.477,-0.371 4.658,-1.05 0.078,-0.047 0.246,-0.164 0.246,-0.164 1.481,-1.055 2.311,-2.785 2.311,-4.878 0,-4.967 -1.532,-9.192 -4.529,-12.562"
           id="path3209"
           style="fill:#231f20;fill-opacity:1;fill-rule:nonzero;stroke:none" />
      </g>
      <g
         transform="matrix(0.24625775,0,0,0.247345,511.30933,530.03478)"
         id="g3211">
        <path
           d="M 0,0 0.012,0 0,0 z"
           id="path3213"
           style="fill:#231f20;fill-opacity:1;fill-rule:nonzero;stroke:none" />
      </g>
      <g
         transform="matrix(0.24625775,0,0,0.247345,509.30125,532.09701)"
         id="g3215">
        <path
           d="m 0,0 c -0.998,0.352 -2.736,0.531 -5.359,0.531 l -16.995,0 c 0.717,-1.168 1.937,-2.691 3.684,-4.069 1.941,-1.488 5.043,-3.265 8.664,-3.265 3.388,0 6.101,0.703 7.866,2.019 1.559,1.078 2.363,2.546 2.363,4.264 0,0.235 -0.09,0.391 -0.223,0.52 m 8.166,-8.337 c -3.804,-4.413 -9.889,-6.968 -16.706,-6.968 -7.8,0 -14.629,2.41 -19.743,6.944 -5.85,4.928 -9.195,12.251 -9.195,20.076 0,7.764 3.228,14.879 8.443,18.577 10.165,7.213 27.557,6.498 34.594,4.519 0.724,-0.207 1.337,-0.661 1.718,-1.274 l 1.501,-2.354 c 0.627,-1 0.6,-2.261 -0.054,-3.226 C 8.057,26.988 6.88,26.5 5.699,26.723 c -5.255,0.925 -19.677,1.105 -24.077,-4.03 -2.393,-2.808 -3.571,-5.542 -3.571,-8.377 0,-0.949 0.133,-1.937 0.406,-2.952 0.05,-0.238 0.233,-0.468 0.506,-0.668 0.519,-0.242 0.998,-0.371 1.493,-0.371 l 20.803,0 1.287,0.028 c 0.03,0 2.934,-0.036 2.934,-0.036 1.915,-0.004 3.477,-0.371 4.666,-1.05 0.02,-0.008 0.187,-0.133 0.187,-0.133 1.532,-1.086 2.358,-2.816 2.358,-4.909 0,-4.967 -1.52,-9.184 -4.525,-12.562"
           id="path3217"
           style="fill:#231f20;fill-opacity:1;fill-rule:nonzero;stroke:none" />
      </g>
      <g
         transform="matrix(0.24625775,0,0,0.247345,534.0047,530.03478)"
         id="g3219">
        <path
           d="M 0,0 0,0 0.008,0 0,0 z"
           id="path3221"
           style="fill:#231f20;fill-opacity:1;fill-rule:nonzero;stroke:none" />
      </g>
      <g
         transform="matrix(0.24625775,0,0,0.247345,531.99281,532.09701)"
         id="g3223">
        <path
           d="m 0,0 c -0.986,0.352 -2.732,0.531 -5.348,0.531 l -17.01,0 c 0.721,-1.168 1.941,-2.691 3.707,-4.069 1.925,-1.488 5.008,-3.265 8.649,-3.265 3.392,0 6.108,0.703 7.874,2.019 1.543,1.078 2.35,2.546 2.35,4.264 C 0.222,-0.285 0.145,-0.129 0,0 m 8.17,-8.337 c -3.789,-4.413 -9.877,-6.968 -16.71,-6.968 -7.788,0 -14.621,2.41 -19.751,6.944 -5.819,4.928 -9.187,12.251 -9.187,20.076 0,7.764 3.224,14.879 8.443,18.577 10.158,7.213 27.557,6.498 34.609,4.519 0.717,-0.207 1.318,-0.661 1.723,-1.274 0.004,0 1.485,-2.354 1.485,-2.354 0.635,-1 0.608,-2.261 -0.051,-3.226 C 8.053,26.988 6.88,26.5 5.71,26.723 c -5.27,0.925 -19.676,1.093 -24.077,-4.03 -2.412,-2.808 -3.582,-5.542 -3.582,-8.377 0,-0.953 0.129,-1.948 0.401,-2.952 0.067,-0.238 0.242,-0.468 0.507,-0.668 0.538,-0.242 0.994,-0.371 1.493,-0.371 l 20.819,0 1.286,0.028 c 0.027,0 2.935,-0.036 2.935,-0.036 1.906,-0.004 3.465,-0.371 4.647,-1.05 0.065,-0.047 0.245,-0.164 0.245,-0.164 1.481,-1.055 2.323,-2.785 2.323,-4.878 0,-4.967 -1.532,-9.184 -4.537,-12.562"
           id="path3225"
           style="fill:#231f20;fill-opacity:1;fill-rule:nonzero;stroke:none" />
      </g>
      <g
         transform="matrix(0.24625775,0,0,0.247345,493.59666,533.59605)"
         id="g3229">
        <path
           d="m 0,0 -0.019,1.418 0,10.844 c 0,2.691 -1.883,5.346 -3.169,6.464 -0.986,0.882 -2.323,2.065 -7.546,2.065 -4.37,0 -8.665,-1.48 -11.78,-4.057 -2.592,-2.156 -5.675,-6.124 -5.675,-12.712 0,-3.53 1.727,-7.169 4.884,-10.251 3.371,-3.186 7.671,-5.111 11.472,-5.111 5.055,0 8.773,1.085 11.034,3.21 C -0.514,-7.88 0.133,-6.541 0,0 m 4.951,-18.792 c -4.892,-1.116 -10.034,-1.261 -13.967,-1.261 -9.023,0 -16.265,2.249 -21.535,6.658 -5.41,4.394 -8.151,10.884 -8.151,19.261 0,6.994 2.803,13.242 7.878,17.605 4.556,4.162 10.957,6.361 18.499,6.361 2.764,0 7.85,-0.301 12.271,-1.926 l 0,13.602 c 0,6.1 -7.391,9.416 -14.348,9.416 -3.965,0 -8.151,-1.625 -11.23,-4.343 -3.087,-2.733 -4.814,-6.334 -5.009,-10.403 -0.078,-1.574 -1.387,-2.808 -2.997,-2.808 l -2.07,0 c -0.819,0 -1.618,0.324 -2.164,0.901 -0.568,0.579 -0.869,1.387 -0.83,2.18 0.301,6.475 2.791,12.289 7.016,16.398 4.627,4.37 11.156,6.677 18.866,6.677 10.723,0 27.726,-6.197 27.726,-22.88 l 0,-47.467 c 0,-5.866 -7.215,-7.392 -9.955,-7.971"
           id="path3231"
           style="fill:#231f20;fill-opacity:1;fill-rule:nonzero;stroke:none" />
      </g>
      <g
         transform="matrix(0.24625775,0,0,0.247345,515.41274,520.71649)"
         id="g3233">
        <path
           d="m 0,0 0,0 c -0.596,0.563 -0.932,1.355 -0.932,2.148 l 0,53.848 0.039,23.083 c 0,0.848 0.364,1.641 0.998,2.188 0.632,0.57 1.482,0.843 2.316,0.754 3.063,-0.329 5.266,-0.989 6.958,-2.094 2.807,-1.784 4.291,-4.408 4.291,-7.569 l 0,-70.21 c 0,-1.585 -1.267,-2.875 -2.88,-2.941 C 1.513,-1.144 1.029,-0.988 0,0"
           id="path3235"
           style="fill:#231f20;fill-opacity:1;fill-rule:nonzero;stroke:none" />
      </g>
      <g
         transform="matrix(0.24625775,0,0,0.247345,539.6708,529.99326)"
         id="g3237">
        <path
           d="m 0,0 0,0 c -6.743,4.514 -10.617,11.692 -10.617,19.674 0,8.689 4.267,15.945 12.005,20.432 5.531,3.198 12.286,4.745 20.612,4.745 2.818,0 4.381,-0.156 5.737,-0.531 2.733,-0.613 3.142,-2.445 3.142,-3.472 l 0,-0.144 c -0.02,-0.418 -0.129,-1 -0.398,-1.469 -0.311,-0.559 -1.574,-2.249 -4.186,-1.628 l -0.004,-0.012 c -1.2,0.246 -2.65,0.363 -4.291,0.363 -4.907,0 -9.616,-1.91 -12.902,-5.28 C 5.719,29.3 3.938,24.47 3.938,18.702 3.938,13.148 5.66,8.623 8.892,5.561 c 3.141,-3.066 7.62,-4.714 12.621,-4.714 3.208,0 5.504,0.5 6.949,0.871 -0.012,0 3.064,0.972 3.064,0.972 -0.023,0 1.014,0.387 1.014,0.387 0.67,0.215 2.654,0.89 4.264,-0.656 0.732,-0.718 1.056,-1.73 0.888,-2.675 C 37.498,-1.25 36.804,-2.562 35.428,-3.289 31.601,-5.084 27.103,-6.034 22.37,-6.034 13.771,-6.034 5.819,-3.882 0,0"
           id="path3239"
           style="fill:#231f20;fill-opacity:1;fill-rule:nonzero;stroke:none" />
      </g>
      <g
         transform="matrix(0.24625775,0,0,0.247345,529.51241,517.89304)"
         id="g3241">
        <path
           d="M 0,0 0,0 C 23.883,-16.073 53.822,-16.776 77.782,-3.838 54.66,-23.071 20.69,-25.723 -5.484,-8.111 -20.857,2.234 -31.28,17.944 -34.812,36.111 c -1.964,10.091 -1.679,20.268 0.741,29.949 0.393,1.601 0.896,3.159 1.399,4.729 C -35.817,43.691 -23.952,16.136 0,0"
           id="path3243"
           style="fill:#ed192d;fill-opacity:1;fill-rule:nonzero;stroke:none" />
      </g>
      <g
         transform="matrix(0.24625775,0,0,0.247345,554.63337,523.30321)"
         id="g3245">
        <path
           d="m 0,0 c -1.473,-2.171 -3.052,-4.241 -4.712,-6.209 17.053,32.178 7.409,72.687 -23.519,93.497 -30.934,20.826 -72.177,14.586 -95.69,-13.258 1.209,2.277 2.546,4.515 4.012,6.686 22.338,33.046 67.28,41.769 100.4,19.479 C 13.596,77.908 22.335,33.057 0,0"
           id="path3247"
           style="fill:#ed192d;fill-opacity:1;fill-rule:nonzero;stroke:none" />
      </g>
    </g>
  </g>
</svg>
